<svg width="377" height="377" xmlns="http://www.w3.org/2000/svg" xmlns:xlink="http://www.w3.org/1999/xlink">
 <defs>
  <linearGradient id="linearGradient3934">
   <stop stop-color="#56a734" id="stop3936" offset="0"/>
   <stop stop-color="#367c2b" id="stop3938" offset="1"/>
  </linearGradient>
  <radialGradient r="157.75711" fy="442.23328" fx="372.21106" cy="442.23328" cx="372.21106" gradientTransform="matrix(1,0,0,0.88951415,0,48.860522)" gradientUnits="userSpaceOnUse" id="radialGradient3794" xlink:href="#linearGradient3934"/>
  <radialGradient r="182.27975" fy="442.23322" fx="372.0322" cy="442.23322" cx="372.0322" gradientTransform="matrix(1,0,0,0.90360592,0,42.628663)" gradientUnits="userSpaceOnUse" id="radialGradient3796" xlink:href="#linearGradient3934"/>
 </defs>
 <metadata id="metadata3016">image/svg+xml</metadata>
 <g>
  <title>background</title>
  <rect fill="none" id="canvas_background" height="379" width="379" y="-1" x="-1"/>
 </g>
 <g>
  <title>Layer 1</title>
  <g id="layer2"/>
  <g display="none" id="g3067"/>
  <g id="g3789">
   <path fill="#fcdf17" stroke="#000000" stroke-width="1px" d="m36.212451,63.962221c92.49484,-38.59491 190.26477,-51.56798 301.53053,1.01016c20.54599,66.04908 39.00809,133.75579 1.51523,245.97214c-71.9298,33.52114 -198.99684,56.94378 -305.57114,0.50508c-20.46623,-79.73368 -39.57012,-150.91782 2.52538,-247.48738z" id="path3013"/>
   <path fill="url(#radialGradient3794)" d="m188.093591,47.382111c43.95034,0.0352 87.88187,8.8681 128.78125,25.96875l7.25,3.03125l1.53125,4.03125c8.39562,21.86862 14.85953,49.89316 17.8125,77.21875c1.16304,10.76234 1.34227,46.80489 0.28125,57.75c-2.5913,26.73099 -8.3821,53.0527 -16.84375,76.5625l-2.5,6.9375l-3.6875,1.6875c-13.49491,6.13876 -34.94805,13.43065 -51.71875,17.59375c-21.41912,5.31699 -37.66054,7.75209 -65.40625,9.78125c-1.45051,0.1061 -10.56283,0.12495 -20.28125,0.0312c-18.97969,-0.18307 -27.83083,-0.80353 -44.59375,-3.15625c-25.38318,-3.56259 -51.32573,-10.45953 -75.15625,-19.9375c-11.17882,-4.44607 -13.71875,-5.57761 -13.71875,-6.15625c-5.1203,-13.82011 -9.15715,-28.64101 -13.40625,-43.0625c-12.31657,-55.25112 -9.43352,-111.60723 8.4375,-165.65625c2.12953,-6.44054 4.08879,-12.15272 4.375,-12.6875c0.91467,-1.70906 22.62187,-10.27457 37.6875,-14.875c29.49367,-9.00616 56.07572,-13.49802 87.53125,-14.78125c4.54386,-0.18537 9.07841,-0.2849 13.625,-0.28125l0,0.00005zm-67.59375,39.6875c-2.39761,-0.007 -4.83534,0.34341 -7.3125,1.03125c-5.05164,1.40269 -13.13429,9.61572 -11.28125,11.46875c0.51377,0.51377 5.52595,-1.96173 7.53125,-3.71875c1.66434,-1.45827 4.0625,-0.86335 4.0625,1c0,0.78832 -1.19823,1.48466 -3.1875,1.84375c-4.27432,0.77159 -5.62886,1.53 -12.09375,6.9375c-3.0467,2.54837 -7.22616,5.30928 -9.3125,6.125c-4.31599,1.68748 -4.8775,3.31167 -1.5,4.4375c3.1688,1.05627 9.99924,-1.04186 15.90625,-4.875c5.5847,-3.624 7.41485,-4.14931 12.34375,-3.59375c4.36883,0.49243 9.05398,3.70969 11.0625,7.59375c1.90231,3.67865 2.46166,11.47733 1.1875,16.875c-2.52016,10.67609 -8.90859,22.1313 -20.15625,36.21875c-16.69332,20.90799 -25.0513,41.03241 -25.0625,60.28125c-0.009,14.99114 4.19123,25.32993 14.34375,35.34375c11.04848,10.89757 29.26945,17.91814 54.1875,20.90625c11.16051,1.33836 36.94764,2.28928 47.03125,1.71875c22.7739,-1.28844 43.37794,-5.85752 56.78125,-12.59375c12.15393,-6.10829 23.81707,-16.13184 32.625,-28c4.80933,-6.48029 5.88733,-8.87468 5.09375,-11.375c-0.78648,-2.47802 -2.97283,-2.53018 -7.65625,-0.15625c-3.78776,1.91995 -5.22941,2.15308 -13.5625,2.125c-6.63099,-0.0224 -10.46469,-0.46017 -13.34375,-1.5c-3.98787,-1.44031 -4.16433,-1.44044 -10.5,0.6875c-3.53665,1.18784 -6.94764,2.15625 -7.59375,2.15625c-1.36062,0 -1.55452,1.35739 -0.3125,2.125c1.8361,1.13477 0.82147,4.59055 -1.96875,6.71875c-4.04357,3.08418 -9.50101,4.7678 -16.0625,4.96875c-4.72253,0.14463 -5.60475,0.38828 -5.15625,1.4375c1.56067,3.65101 1.28474,5.80364 -0.875,7.21875c-2.7877,1.82657 -11.00238,2.58781 -15.28125,1.40625c-3.04213,-0.84004 -3.47547,-0.75851 -5.25,1.15625c-1.67223,1.80436 -2.69155,2.09375 -7.40625,2.09375c-10.55485,0 -21.37727,-4.95888 -29.21875,-13.40625c-6.21549,-6.69574 -5.82063,-7.59336 0.71875,-1.625c3.41653,3.11821 8.71204,6.98092 11.78125,8.59375c9.04458,4.75279 21.19256,5.83499 21.9375,1.96875c0.14503,-0.75272 -0.61027,-1.87947 -1.6875,-2.53125c-11.99552,-7.25787 -15.93387,-10.34493 -21.25,-16.65625c-5.30973,-6.30371 -3.5321,-5.55837 3.40625,1.4375c10.14396,10.22805 20.95375,16.02909 31.53125,16.875c6.40702,0.5124 10.1875,-0.61206 10.1875,-3.03125c0,-1.95497 -2.55087,-4.06979 -10.59375,-8.75c-10.51847,-6.12078 -24.40524,-15.417 -23.5,-15.71875c0.48376,-0.16126 3.51416,1.43799 6.75,3.53125c9.16535,5.92904 23.84278,13.43337 27.625,14.125c9.04913,1.65475 22.59375,-3.20218 22.59375,-8.09375c0,-1.01704 -5.57594,-2.80404 -10.59375,-3.375c-7.84786,-0.89295 -18.03615,-3.80839 -24.4375,-7c-3.19393,-1.59245 -5.63019,-3.08857 -5.40625,-3.3125c0.22394,-0.22394 2.84252,0.5784 5.8125,1.75c7.12457,2.8105 16.86827,5.31281 23.3125,6c9.57183,1.02069 24.36998,-2.36138 28.90625,-6.59375c4.55112,-4.24622 0.9045,-6.50554 -9.125,-5.6875c-13.65843,1.11402 -33.46937,-0.83798 -35.9375,-3.53125c-0.66333,-0.72384 -0.52665,-0.85925 0.5,-0.5c8.57049,2.99903 27.93218,2.93833 37.34375,-0.125c6.5657,-2.13703 18.03734,-9.59989 20.03125,-13.03125c1.04048,-1.7906 1.1274,-2.68442 0.40625,-3.8125c-1.19276,-1.8658 -3.60187,-1.77052 -14.1875,0.53125c-10.75359,2.3383 -27.35404,3.89666 -30.125,2.84375c-1.58212,-0.60118 0.18765,-0.91428 7.46875,-1.375c16.84891,-1.06615 28.68733,-5.19217 35.75,-12.4375c3.62904,-3.72289 9.28125,-13.75992 9.28125,-16.5c0,-1.71852 -2.87348,-1.55546 -6.71875,0.40625c-4.32379,2.20582 -21.22736,7.15601 -32.28125,9.4375c-11.69538,2.41389 -27.88182,2.41261 -50.125,0c-9.16371,-0.99386 -17.73903,-1.64326 -19.0625,-1.4375c-1.32348,0.20577 -4.6888,0.64839 -7.46875,0.96875c-27.06424,3.11872 -50.08941,25.89739 -47.34375,46.84375c0.52918,4.03696 2.93418,9.78227 4.5,10.75c0.47026,0.29063 1.27737,1.30848 1.78125,2.25c0.80709,1.50805 0.73799,1.60952 -0.625,0.875c-5.16601,-2.78398 -7.65327,-8.3218 -8.96875,-20.09375c-2.23052,-19.96041 2.48399,-33.4038 22.8125,-65.0625c5.44694,-8.48316 11.4457,-18.83637 13.34375,-23.03125c3.33332,-7.36698 3.46961,-7.93643 3.46875,-16.53125c-0.00091,-12.00633 -1.94448,-16.91324 -9.6875,-24.65625c-6.18868,-6.18868 -12.99468,-9.32239 -20.1875,-9.34375zm140.8125,63.65625c-0.27209,0 -3.22233,2.24256 -6.5625,4.96875c-11.87771,9.69439 -25.41461,16.31449 -42.09375,20.625c-8.62284,2.22846 -11.84779,2.61631 -27.96875,3.21875c-17.18728,0.6423 -19.72642,0.94602 -25.75,3.3125c-3.31767,1.3034 -2.4037,1.96689 1.21875,0.875c4.26133,-1.28447 20.23609,-1.05082 30.46875,0.4375c9.49001,1.3803 36.08687,1.68763 39.8125,0.46875c3.44908,-1.12842 10.84793,-4.9452 16.625,-8.59375c6.98359,-4.41054 11.85955,-9.98752 13.46875,-15.40625c1.26664,-4.26529 1.71478,-9.90625 0.78125,-9.90625z" id="path3069"/>
   <path fill="url(#radialGradient3796)" id="path3065" d="m168.991851,352.177541c-18.17244,-1.19866 -30.27892,-2.52099 -43.25161,-4.72416c-32.16522,-5.46266 -60.86522,-14.44619 -92.71452,-29.02104l-3.31028,-1.51485l-2.68816,-6.85824c-11.95386,-30.49761 -19.11033,-61.92274 -22.1622,-97.31741c-0.83812,-9.72035 -0.83822,-40.1658 -0.00016,-49.84484c3.08425,-35.62098 10.42262,-67.71965 22.18477,-97.03813l2.9568,-7.37014l6.59323,-3.01711c17.53924,-8.02607 41.05694,-16.36127 59.17004,-20.97121c68.60314,-17.46006 139.18622,-15.00775 205.59853,7.14324c14.33095,4.77991 39.58961,15.25246 41.48615,17.20067c1.36633,1.40356 8.33388,20.34905 11.98264,32.58202c10.2904,34.50006 14.5319,65.731 13.89721,102.32699c-0.61365,35.38186 -5.57316,65.24347 -16.29396,98.10732c-2.87181,8.80333 -8.63842,24.25286 -9.2991,24.91354c-0.96523,0.96522 -20.27342,9.24746 -30.41688,13.04729c-33.76081,12.64711 -68.55586,19.94025 -105.75547,22.16661c-7.81965,0.46801 -31.93048,0.58828 -37.97703,0.18945zm35.07601,-13.91174c43.51626,-2.31547 84.62805,-12.12295 123.42533,-29.44391l4.74713,-2.11934l1.43363,-3.59688c0.7885,-1.97828 3.09177,-8.58135 5.11837,-14.6735c20.84035,-62.64787 21.61474,-130.17626 2.22914,-194.38329c-2.77797,-9.20092 -7.60818,-22.70372 -8.78443,-24.55676c-0.78107,-1.23051 -14.59912,-7.26958 -27.5306,-12.03204c-25.45206,-9.37359 -54.65905,-15.95803 -84.69443,-19.09353c-12.67804,-1.32351 -45.87174,-1.60921 -59.72321,-0.51405c-30.3831,2.40225 -57.07455,7.79317 -84.65713,17.09838c-13.85242,4.67323 -33.0198,12.42826 -34.60973,14.00293c-0.8903,0.88177 -6.11047,15.33467 -9.0972,25.18714c-9.01943,29.75274 -13.07842,55.89127 -13.62567,87.74456c-0.53687,31.24955 2.14413,55.32442 9.38722,84.2954c3.51522,14.06018 11.62149,38.63169 13.29921,40.31219c0.98913,0.99078 14.2382,6.65637 24.62446,10.52997c43.77295,16.32528 91.95291,23.71723 138.45791,21.24273z"/>
  </g>
  <path fill="#fcdf17" id="path3873" d="m130.35876,90.797151c-0.014,-0.0546 1.0132,-1.13904 2.2822,-2.40992c2.96566,-2.9701 5.87326,-7.30982 6.75081,-10.0759c1.32179,-4.16638 0.65082,-8.70527 -1.86973,-12.64816c-0.72143,-1.12853 -1.38882,-2.03241 -1.48308,-2.0086c-0.0942,0.0239 -0.0459,0.731 0.10741,1.57152c0.38032,2.08476 0.35814,4.623 -0.0599,6.85433c-0.65396,3.49057 -3.60726,8.01763 -4.69623,7.19879c-0.22537,-0.16949 -1.23622,-0.89362 -2.24632,-1.60919l-1.83654,-1.30107l0.19176,-2.05798c0.40233,-4.31797 -1.94314,-10.29904 -5.22315,-13.31934c-1.14657,-1.05578 -1.793,-1.46353 -1.60827,-1.01446c0.0287,0.0699 0.35057,0.81351 0.71516,1.6525c1.53935,3.54239 2.05569,8.56356 1.17007,11.37856c-0.20199,0.64205 -0.2552,0.64009 -2.09645,-0.0772c-1.03906,-0.40478 -2.66967,-0.94982 -3.62359,-1.21121l-1.7344,-0.47525l-0.3153,-1.50316c-0.38472,-1.83405 -2.00943,-4.55938 -3.68644,-6.18371c-1.29611,-1.25538 -4.23296,-3.16933 -4.39618,-2.86498c-0.0515,0.096 0.44524,0.95363 1.10392,1.90571c1.8719,2.70579 3.28935,6.71242 2.70685,7.6513c-0.0807,0.13035 -1.48363,0.18103 -3.11736,0.11272c-3.18715,-0.13319 -10.6709,0.0816 -10.61297,0.30452c0.0196,0.0742 1.6339,0.46918 3.58803,0.87763c13.58241,2.83901 25.00261,8.47161 25.53563,12.59453c0.14995,1.16239 -0.84057,2.75612 -2.17541,3.49917l6.62948,3.15885z"/>
 </g>
</svg>